<svg xmlns="http://www.w3.org/2000/svg" viewBox="0 0 1024 1024" role="img" aria-labelledby="title desc">
  <title id="title">Copy Cat logo</title>
  <desc id="desc">Black and white CC monogram for Copy Cat.</desc>
  <rect width="1024" height="1024" rx="128" fill="#020202"/>
  <path d="M220 258 330 126l74 142h216l74-142 110 132-50 122c44 58 70 130 70 208 0 188-137 316-312 316S200 776 200 588c0-78 26-150 70-208l-50-122Z" fill="#f7f7f7"/>
  <path d="M328 584c0-104 74-176 174-176 58 0 111 23 145 65l-78 65c-16-21-38-32-65-32-42 0-72 32-72 78s30 78 72 78c27 0 49-11 65-32l78 65c-34 42-87 65-145 65-100 0-174-72-174-176Z" fill="#020202"/>
  <path d="M512 584c0-104 74-176 174-176 58 0 111 23 145 65l-78 65c-16-21-38-32-65-32-42 0-72 32-72 78s30 78 72 78c27 0 49-11 65-32l78 65c-34 42-87 65-145 65-100 0-174-72-174-176Z" fill="#020202"/>
  <path d="M308 830h408v54H308z" fill="#f7f7f7"/>
</svg>
