<svg width="512" height="512" viewBox="0 0 512 512" fill="none" xmlns="http://www.w3.org/2000/svg">
  <rect width="512" height="512" rx="104" fill="#050805"/>
  <circle cx="256" cy="256" r="190" fill="#9CFF00"/>
  <path d="M151 307c48-15 86-39 114-72 30-35 45-76 45-123 42 34 60 76 54 126-8 66-57 116-147 150l-66-81Z" fill="#071107"/>
  <path d="M360 121c-50 4-92 25-126 62-43 47-65 111-65 191l-63 39c-1-110 32-195 99-255 48-43 100-58 155-37Z" fill="#071107"/>
  <path d="M337 163l52-6-33 41 25 50-50-27-42 38 10-55-48-28 55-8 12-54 19 49Z" fill="#9CFF00"/>
  <path d="M134 395c101-15 184-53 248-114" stroke="#071107" stroke-width="20" stroke-linecap="round"/>
  <path d="M130 397l65-19-39 55-26-36Z" fill="#071107"/>
</svg>
