<svg width="512" height="512" viewBox="0 0 512 512" fill="none" xmlns="http://www.w3.org/2000/svg">
  <rect width="512" height="512" rx="112" fill="#020804"/>
  <path d="M256 62c72 0 138 35 178 94-39-19-79-23-119-12-39 11-72 34-99 67-32 38-50 84-55 139-30-41-47-86-47-133 0-89 62-155 142-155Z" fill="#0BD85F"/>
  <path d="M382 169c-40 2-77 17-110 44-54 44-82 106-85 187l-62 43c4-105 37-185 100-240 47-41 100-59 157-34Z" fill="#D9FF46"/>
  <path d="M156 332c30-16 57-36 81-61 40-41 64-87 72-138 30 45 37 91 22 137-18 56-62 97-132 124l-43-62Z" fill="#07130B"/>
  <path d="M324 194l72-6-46 57 35 70-70-37-58 52 13-76-66-39 75-11 16-74 29 64Z" fill="#020804" opacity=".82"/>
  <path d="M122 407c92-13 168-47 227-102" stroke="#D9FF46" stroke-width="18" stroke-linecap="round"/>
  <path d="M118 409l58-18-34 50-24-32Z" fill="#D9FF46"/>
</svg>
