<svg width="512" height="512" viewBox="0 0 512 512" fill="none" xmlns="http://www.w3.org/2000/svg">
  <rect width="512" height="512" rx="92" fill="#050505"/>
  <rect x="36" y="36" width="440" height="440" rx="74" fill="#0b0d08" stroke="#baff00" stroke-width="4"/>
  <rect x="68" y="68" width="376" height="376" rx="54" fill="#c8ff00"/>
  <path d="M396 149c-34 5-59 26-75 62-8 18-11 37-9 57-24-23-38-51-40-84-4-58 38-104 90-108 30-2 59 10 80 32-24-7-46-3-46 41Z" fill="#050505"/>
  <path d="M374 158l45-6-29 36 23 43-44-23-37 33 9-48-42-25 48-7 10-47 17 44Z" fill="#c8ff00"/>
  <text x="112" y="238" fill="#050505" font-family="Arial Black, Arial, sans-serif" font-size="76" font-weight="900" letter-spacing="-4">Hood</text>
  <text x="112" y="313" fill="#050505" font-family="Arial Black, Arial, sans-serif" font-size="68" font-weight="900" letter-spacing="-5">Strategy</text>
  <path d="M116 336h242" stroke="#050505" stroke-width="16" stroke-linecap="round"/>
  <path d="M356 336l-30-20 70-7-34 62-6-35Z" fill="#050505"/>
</svg>
