<svg width="512" height="512" viewBox="0 0 512 512" fill="none" xmlns="http://www.w3.org/2000/svg">
  <rect width="512" height="512" rx="128" fill="#020302"/>
  <circle cx="256" cy="256" r="188" stroke="#35FF78" stroke-width="18"/>
  <circle cx="256" cy="256" r="188" stroke="#35FF78" stroke-width="2" opacity=".35"/>
  <path d="M148 292c46-89 116-132 210-129l-34 43c-54 3-94 29-120 78l64-10-61 91-8-63-51-10Z" fill="#35FF78"/>
  <path d="M178 162c16-32 47-52 84-52 48 0 88 34 98 79" stroke="#F7FFF5" stroke-width="20" stroke-linecap="round"/>
  <path d="M151 389h210" stroke="#F7FFF5" stroke-width="18" stroke-linecap="round"/>
  <path d="M374 123l-6 52 48-22-42-30Z" fill="#35FF78"/>
</svg>
