<svg xmlns="http://www.w3.org/2000/svg" viewBox="0 0 1024 1024" role="img" aria-labelledby="title desc">
  <title id="title">GRASS</title>
  <desc id="desc">Placeholder GRASS wordmark with grass blades.</desc>
  <defs>
    <linearGradient id="grass-bg" x1="0" x2="1" y1="0" y2="1">
      <stop offset="0" stop-color="#0c2a10"/>
      <stop offset="0.48" stop-color="#071607"/>
      <stop offset="1" stop-color="#39ff88"/>
    </linearGradient>
    <linearGradient id="grass-text" x1="0" x2="1" y1="0" y2="0">
      <stop offset="0" stop-color="#eaffd8"/>
      <stop offset="0.52" stop-color="#7cff58"/>
      <stop offset="1" stop-color="#22e56f"/>
    </linearGradient>
    <filter id="glow" x="-30%" y="-30%" width="160%" height="160%">
      <feGaussianBlur stdDeviation="18" result="blur"/>
      <feColorMatrix in="blur" type="matrix" values="0 0 0 0 0.15 0 0 0 0 1 0 0 0 0 0.42 0 0 0 .7 0"/>
      <feMerge>
        <feMergeNode/>
        <feMergeNode in="SourceGraphic"/>
      </feMerge>
    </filter>
  </defs>
  <rect width="1024" height="1024" rx="190" fill="#050805"/>
  <rect x="34" y="34" width="956" height="956" rx="166" fill="url(#grass-bg)" opacity="0.86"/>
  <path d="M122 724c96-176 119-280 112-438 88 139 110 270 35 438h-71c28-77 33-154 15-232-23 86-47 162-103 232h12Z" fill="#071007" opacity="0.88"/>
  <path d="M810 724c-56-132-49-261 21-386 10 145 45 252 99 386h-66c-15-56-29-111-37-173-13 62-12 118 9 173h-26Z" fill="#071007" opacity="0.88"/>
  <path d="M107 727c138-98 251-137 406-137 159 0 286 39 406 137" fill="none" stroke="#48ff78" stroke-width="22" stroke-linecap="round" opacity="0.72" filter="url(#glow)"/>
  <text x="512" y="546" text-anchor="middle" fill="url(#grass-text)" filter="url(#glow)" font-family="Inter, Arial Black, Arial, sans-serif" font-size="176" font-weight="950" letter-spacing="0">GRASS</text>
  <text x="512" y="638" text-anchor="middle" fill="#cfffbd" font-family="Inter, Arial, sans-serif" font-size="43" font-weight="900" letter-spacing="12">BLACK BULL REWARDS</text>
</svg>
